<mxfile host="app.diagrams.net" modified="2024-05-17T16:04:18.160Z" agent="Mozilla/5.0 (Macintosh; Intel Mac OS X 10_15_7) AppleWebKit/605.1.15 (KHTML, like Gecko) Version/17.4.1 Safari/605.1.15" etag="K699fTtUGYSCvpCKcHAc" version="24.4.4" type="device">
  <diagram name="Страница — 1" id="vWCDahHSMOvYXhFxrP4V">
    <mxGraphModel dx="1420" dy="1917" grid="1" gridSize="10" guides="1" tooltips="1" connect="1" arrows="1" fold="1" page="1" pageScale="1" pageWidth="827" pageHeight="1169" math="0" shadow="0">
      <root>
        <mxCell id="0" />
        <mxCell id="1" parent="0" />
        <mxCell id="F92dEV2YW7aVrnJHoGkQ-31" style="edgeStyle=orthogonalEdgeStyle;rounded=0;orthogonalLoop=1;jettySize=auto;html=1;exitX=0;exitY=0.25;exitDx=0;exitDy=0;entryX=0.5;entryY=0;entryDx=0;entryDy=0;" edge="1" parent="1" source="F92dEV2YW7aVrnJHoGkQ-16" target="F92dEV2YW7aVrnJHoGkQ-19">
          <mxGeometry relative="1" as="geometry" />
        </mxCell>
        <mxCell id="F92dEV2YW7aVrnJHoGkQ-16" value="user-service" style="rounded=0;whiteSpace=wrap;html=1;" vertex="1" parent="1">
          <mxGeometry x="410" y="10" width="120" height="60" as="geometry" />
        </mxCell>
        <mxCell id="F92dEV2YW7aVrnJHoGkQ-30" style="edgeStyle=orthogonalEdgeStyle;rounded=0;orthogonalLoop=1;jettySize=auto;html=1;exitX=1;exitY=0.5;exitDx=0;exitDy=0;entryX=0;entryY=0.75;entryDx=0;entryDy=0;" edge="1" parent="1" source="F92dEV2YW7aVrnJHoGkQ-17" target="F92dEV2YW7aVrnJHoGkQ-16">
          <mxGeometry relative="1" as="geometry">
            <Array as="points">
              <mxPoint x="340" y="330" />
              <mxPoint x="340" y="55" />
            </Array>
          </mxGeometry>
        </mxCell>
        <mxCell id="F92dEV2YW7aVrnJHoGkQ-39" style="edgeStyle=orthogonalEdgeStyle;rounded=0;orthogonalLoop=1;jettySize=auto;html=1;exitX=0.5;exitY=0;exitDx=0;exitDy=0;entryX=0.5;entryY=1;entryDx=0;entryDy=0;" edge="1" parent="1" source="F92dEV2YW7aVrnJHoGkQ-17" target="F92dEV2YW7aVrnJHoGkQ-19">
          <mxGeometry relative="1" as="geometry" />
        </mxCell>
        <mxCell id="F92dEV2YW7aVrnJHoGkQ-41" style="edgeStyle=orthogonalEdgeStyle;rounded=0;orthogonalLoop=1;jettySize=auto;html=1;exitX=0.5;exitY=1;exitDx=0;exitDy=0;entryX=0;entryY=0.25;entryDx=0;entryDy=0;" edge="1" parent="1" source="F92dEV2YW7aVrnJHoGkQ-17" target="F92dEV2YW7aVrnJHoGkQ-18">
          <mxGeometry relative="1" as="geometry" />
        </mxCell>
        <mxCell id="F92dEV2YW7aVrnJHoGkQ-17" value="account-service" style="rounded=0;whiteSpace=wrap;html=1;" vertex="1" parent="1">
          <mxGeometry x="90" y="300" width="120" height="60" as="geometry" />
        </mxCell>
        <mxCell id="F92dEV2YW7aVrnJHoGkQ-29" style="edgeStyle=orthogonalEdgeStyle;rounded=0;orthogonalLoop=1;jettySize=auto;html=1;exitX=0.5;exitY=0;exitDx=0;exitDy=0;" edge="1" parent="1" source="F92dEV2YW7aVrnJHoGkQ-18">
          <mxGeometry relative="1" as="geometry">
            <mxPoint x="420" y="70" as="targetPoint" />
            <Array as="points">
              <mxPoint x="360" y="390" />
              <mxPoint x="360" y="230" />
              <mxPoint x="420" y="230" />
              <mxPoint x="420" y="70" />
            </Array>
          </mxGeometry>
        </mxCell>
        <mxCell id="F92dEV2YW7aVrnJHoGkQ-18" value="classifier-service" style="rounded=0;whiteSpace=wrap;html=1;" vertex="1" parent="1">
          <mxGeometry x="250" y="390" width="120" height="60" as="geometry" />
        </mxCell>
        <mxCell id="F92dEV2YW7aVrnJHoGkQ-24" style="edgeStyle=orthogonalEdgeStyle;rounded=0;orthogonalLoop=1;jettySize=auto;html=1;exitX=1;exitY=0.5;exitDx=0;exitDy=0;entryX=0;entryY=0.5;entryDx=0;entryDy=0;" edge="1" parent="1" source="F92dEV2YW7aVrnJHoGkQ-19" target="F92dEV2YW7aVrnJHoGkQ-16">
          <mxGeometry relative="1" as="geometry" />
        </mxCell>
        <mxCell id="F92dEV2YW7aVrnJHoGkQ-19" value="audit-service" style="rounded=0;whiteSpace=wrap;html=1;" vertex="1" parent="1">
          <mxGeometry x="90" y="110" width="120" height="60" as="geometry" />
        </mxCell>
        <mxCell id="F92dEV2YW7aVrnJHoGkQ-28" style="edgeStyle=orthogonalEdgeStyle;rounded=0;orthogonalLoop=1;jettySize=auto;html=1;exitX=0.5;exitY=0;exitDx=0;exitDy=0;entryX=1;entryY=1;entryDx=0;entryDy=0;" edge="1" parent="1" source="F92dEV2YW7aVrnJHoGkQ-20" target="F92dEV2YW7aVrnJHoGkQ-16">
          <mxGeometry relative="1" as="geometry" />
        </mxCell>
        <mxCell id="F92dEV2YW7aVrnJHoGkQ-35" style="edgeStyle=orthogonalEdgeStyle;rounded=0;orthogonalLoop=1;jettySize=auto;html=1;exitX=0.25;exitY=1;exitDx=0;exitDy=0;entryX=0;entryY=0.25;entryDx=0;entryDy=0;" edge="1" parent="1" source="F92dEV2YW7aVrnJHoGkQ-20" target="F92dEV2YW7aVrnJHoGkQ-19">
          <mxGeometry relative="1" as="geometry">
            <Array as="points">
              <mxPoint x="640" y="470" />
              <mxPoint x="40" y="470" />
              <mxPoint x="40" y="125" />
            </Array>
          </mxGeometry>
        </mxCell>
        <mxCell id="F92dEV2YW7aVrnJHoGkQ-42" style="edgeStyle=orthogonalEdgeStyle;rounded=0;orthogonalLoop=1;jettySize=auto;html=1;exitX=0.75;exitY=1;exitDx=0;exitDy=0;entryX=0.25;entryY=1;entryDx=0;entryDy=0;" edge="1" parent="1" source="F92dEV2YW7aVrnJHoGkQ-20" target="F92dEV2YW7aVrnJHoGkQ-17">
          <mxGeometry relative="1" as="geometry">
            <Array as="points">
              <mxPoint x="700" y="520" />
              <mxPoint x="120" y="520" />
            </Array>
          </mxGeometry>
        </mxCell>
        <mxCell id="F92dEV2YW7aVrnJHoGkQ-20" value="report-service" style="rounded=0;whiteSpace=wrap;html=1;" vertex="1" parent="1">
          <mxGeometry x="610" y="390" width="120" height="60" as="geometry" />
        </mxCell>
        <mxCell id="F92dEV2YW7aVrnJHoGkQ-26" style="edgeStyle=orthogonalEdgeStyle;rounded=0;orthogonalLoop=1;jettySize=auto;html=1;exitX=0;exitY=0.5;exitDx=0;exitDy=0;entryX=1;entryY=0.5;entryDx=0;entryDy=0;" edge="1" parent="1" source="F92dEV2YW7aVrnJHoGkQ-21" target="F92dEV2YW7aVrnJHoGkQ-16">
          <mxGeometry relative="1" as="geometry" />
        </mxCell>
        <mxCell id="F92dEV2YW7aVrnJHoGkQ-36" style="edgeStyle=orthogonalEdgeStyle;rounded=0;orthogonalLoop=1;jettySize=auto;html=1;exitX=0.5;exitY=0;exitDx=0;exitDy=0;entryX=0.25;entryY=0;entryDx=0;entryDy=0;" edge="1" parent="1" source="F92dEV2YW7aVrnJHoGkQ-21" target="F92dEV2YW7aVrnJHoGkQ-19">
          <mxGeometry relative="1" as="geometry">
            <Array as="points">
              <mxPoint x="710" y="-10" />
              <mxPoint x="120" y="-10" />
            </Array>
          </mxGeometry>
        </mxCell>
        <mxCell id="F92dEV2YW7aVrnJHoGkQ-43" style="edgeStyle=orthogonalEdgeStyle;rounded=0;orthogonalLoop=1;jettySize=auto;html=1;exitX=1;exitY=0.5;exitDx=0;exitDy=0;entryX=0.75;entryY=0;entryDx=0;entryDy=0;" edge="1" parent="1" source="F92dEV2YW7aVrnJHoGkQ-21" target="F92dEV2YW7aVrnJHoGkQ-17">
          <mxGeometry relative="1" as="geometry">
            <Array as="points">
              <mxPoint x="790" y="140" />
              <mxPoint x="790" y="200" />
              <mxPoint x="180" y="200" />
            </Array>
          </mxGeometry>
        </mxCell>
        <mxCell id="F92dEV2YW7aVrnJHoGkQ-21" value="account-scheduler-service" style="rounded=0;whiteSpace=wrap;html=1;" vertex="1" parent="1">
          <mxGeometry x="650" y="110" width="120" height="60" as="geometry" />
        </mxCell>
        <mxCell id="F92dEV2YW7aVrnJHoGkQ-27" style="edgeStyle=orthogonalEdgeStyle;rounded=0;orthogonalLoop=1;jettySize=auto;html=1;exitX=0.5;exitY=0;exitDx=0;exitDy=0;entryX=0.75;entryY=1;entryDx=0;entryDy=0;" edge="1" parent="1" source="F92dEV2YW7aVrnJHoGkQ-22" target="F92dEV2YW7aVrnJHoGkQ-16">
          <mxGeometry relative="1" as="geometry" />
        </mxCell>
        <mxCell id="F92dEV2YW7aVrnJHoGkQ-37" style="edgeStyle=orthogonalEdgeStyle;rounded=0;orthogonalLoop=1;jettySize=auto;html=1;exitX=0;exitY=0.5;exitDx=0;exitDy=0;entryX=1;entryY=0.5;entryDx=0;entryDy=0;" edge="1" parent="1" source="F92dEV2YW7aVrnJHoGkQ-22" target="F92dEV2YW7aVrnJHoGkQ-18">
          <mxGeometry relative="1" as="geometry" />
        </mxCell>
        <mxCell id="F92dEV2YW7aVrnJHoGkQ-38" style="edgeStyle=orthogonalEdgeStyle;rounded=0;orthogonalLoop=1;jettySize=auto;html=1;exitX=0.5;exitY=1;exitDx=0;exitDy=0;entryX=0;entryY=0.5;entryDx=0;entryDy=0;" edge="1" parent="1" source="F92dEV2YW7aVrnJHoGkQ-22" target="F92dEV2YW7aVrnJHoGkQ-20">
          <mxGeometry relative="1" as="geometry" />
        </mxCell>
        <mxCell id="F92dEV2YW7aVrnJHoGkQ-40" style="edgeStyle=orthogonalEdgeStyle;rounded=0;orthogonalLoop=1;jettySize=auto;html=1;exitX=1;exitY=0.5;exitDx=0;exitDy=0;entryX=0.5;entryY=1;entryDx=0;entryDy=0;" edge="1" parent="1" source="F92dEV2YW7aVrnJHoGkQ-22" target="F92dEV2YW7aVrnJHoGkQ-21">
          <mxGeometry relative="1" as="geometry" />
        </mxCell>
        <mxCell id="F92dEV2YW7aVrnJHoGkQ-22" value="telegram-service" style="rounded=0;whiteSpace=wrap;html=1;" vertex="1" parent="1">
          <mxGeometry x="440" y="290" width="120" height="60" as="geometry" />
        </mxCell>
        <mxCell id="F92dEV2YW7aVrnJHoGkQ-33" style="edgeStyle=orthogonalEdgeStyle;rounded=0;orthogonalLoop=1;jettySize=auto;html=1;exitX=0;exitY=0.5;exitDx=0;exitDy=0;entryX=0;entryY=0.383;entryDx=0;entryDy=0;entryPerimeter=0;" edge="1" parent="1" source="F92dEV2YW7aVrnJHoGkQ-18" target="F92dEV2YW7aVrnJHoGkQ-19">
          <mxGeometry relative="1" as="geometry" />
        </mxCell>
      </root>
    </mxGraphModel>
  </diagram>
</mxfile>
